<svg height="512" viewBox="0 0 60 51" width="512" xmlns="http://www.w3.org/2000/svg" id="fi_3760602">
    <g id="Page-1" fill="none" fill-rule="evenodd">
        <g id="023---Unicorn">
            <path id="Path"
                  d="m55.99 9.01c-.9081679 1.3823473-2.2265696 2.4454617-3.77 3.04-3.26 1.16-6.51-.62-7.22-2.05-.6412788-1.56346095-1.6096144-2.97163914-2.84-4.13.86-2.98 5.19-3.47 7.96-1.83.8025318.45840971 1.4554124 1.13907246 1.88 1.96.4336101.99291531 1.0947576 1.86987782 1.93 2.56.5561353.50884945 1.3423361.68059234 2.06.45z"
                  fill="#e91e63"></path>
            <path id="Path"
                  d="m53.93 8.56c-.8352424-.69012218-1.4963899-1.56708469-1.93-2.56-.4245876-.82092754-1.0774682-1.50159029-1.88-1.96-1.5013007-.86151739-3.270506-1.13046514-4.96-.754.6891738.14583876 1.3507696.40035062 1.96.754.8025318.45840971 1.4554124 1.13907246 1.88 1.96.4336101.99291531 1.0947576 1.86987782 1.93 2.56.5561353.50884945 1.3423361.68059234 2.06.45-.9081679 1.3823473-2.2265696 2.4454617-3.77 3.04-.2261172.0793981-.4564724.1461677-.69.2 1.2240046.2854505 2.5040184.2160731 3.69-.2 1.5434304-.5945383 2.8618321-1.6576527 3.77-3.04-.7176639.23059234-1.5038647.05884945-2.06-.45z"
                  fill="#ad1457"></path>
            <path id="Path"
                  d="m38.37 8.83c-2.11.03-5.4 1.01-4.37 7.17 1 6-1 9-4 9 0 0-4.78.53-7.37-3.05-1.1668941-1.7574198-1.7383038-3.8432403-1.63-5.95 0 0 4 4 6-1 1.91-4.77 5.63-13.17 12.04-9.6-.62.66-.75 2.03-.67 3.43z"
                  fill="#ffdc00"></path>
            <path id="Path"
                  d="m39.04 5.4c-1.3328791-.84088295-2.96293-1.06817944-4.475-.624.5134841.15210449 1.0082538.36141725 1.475.624-.62.66-.75 2.03-.67 3.43-2.11.03-5.4 1.01-4.37 7.17.906 5.435-.654 8.4-3.185 8.912.7223696.1148438 1.4557345.1443797 2.185.088 3 0 5-3 4-9-1.03-6.16 2.26-7.14 4.37-7.17-.08-1.4.05-2.77.67-3.43z"
                  fill="#fec108"></path>
            <path id="Path"
                  d="m28 28c1.1417646-.5855488 1.8986336-1.7208524 2-3 3 0 5-3 4-9-1.03-6.16 2.26-7.14 4.37-7.17.02.41.06.83.1 1.22.0890106.6998073.267121 1.3853644.53 2.04.04 3.16 1.88 16.9-11 15.91z"
                  fill="#02a9f4"></path>
            <path id="Path"
                  d="m39 12.09c-.262879-.6546356-.4409894-1.3401927-.53-2.04-.04-.39-.08-.81-.1-1.22-1.0462928-.01927544-2.0714074.29603663-2.926.9.01.107.015.22.026.323.089261.6987878.2673674 1.3833212.53 2.037.036 2.875 1.559 14.5-7.866 15.833-.078.046-.134.077-.134.077 12.88.99 11.04-12.75 11-15.91z"
                  fill="#0377bc"></path>
            <path id="Path"
                  d="m54.19 31c-2.9732421 1.559784-6.4601512 1.8168666-9.63.71-.6033271 2.2277416-1.5659642 4.3421657-2.85 6.26.7.91 1.94 2.44 3.84 4.48l-4.23 4.23c-1.4577782-1.3213955-2.836812-2.7271419-4.13-4.21-2.7472192 1.7302209-5.9443234 2.6103813-9.19 2.53-2.5141638.0563213-5.0129121-.406662-7.34-1.36-1.2508134 1.419345-2.5795282 2.7680907-3.98 4.04l-4.23-4.23c1.47-1.58 2.54-2.85 3.28-3.76-1.0496104-1.5421026-1.6802399-3.3306091-1.83-5.19-.1466064-1.7210647.0784783-3.4535346.66-5.08v-.01c.454071-1.2900352 1.1235563-2.4937564 1.98-3.56.14-.18.3-.36.46-.54 1.4799689-1.6801748 3.4486354-2.8550806 5.63-3.36 2.59 3.58 7.37 3.05 7.37 3.05-.1013664 1.2791476-.8582354 2.4144512-2 3 12.88.99 11.04-12.75 11-15.91-.262879-.6546356-.4409894-1.3401927-.53-2.04-.04-.39-.08-.81-.1-1.22-.08-1.4.05-2.77.67-3.43.2483089-.26414345.5975978-.40968048.96-.4.7993342.02966248 1.5632566.33735345 2.16.87 1.2303856 1.15836086 2.1987212 2.56653905 2.84 4.13.71 1.43 3.96 3.21 7.22 2.05 1.26 1.24 2.72 2.68 4 3.95 3.03 3 5.06 11-2.03 15z"
                  fill="#f5f5f5"></path>
            <path id="Path"
                  d="m39.16 5.87c1.2303856 1.15836086 2.1987212 2.56653905 2.84 4.13.66 1.329 3.514 2.957 6.53 2.25-1.4313299-.2448634-2.7037217-1.0558779-3.53-2.25-.6412788-1.56346095-1.6096144-2.97163914-2.84-4.13-.5967434-.53264655-1.3606658-.84033752-2.16-.87-.3624022-.00968048-.7116911.13585655-.96.4-.0698812.07705355-.1324815.16040899-.187.249.103.072.208.14.307.221z"
                  fill="#cfd8dc"></path>
            <path id="Path"
                  d="m56.22 16c-1.28-1.27-2.74-2.71-4-3.95-.8471697.2988797-1.7471364.4187391-2.643.352 1.175 1.157 2.48 2.444 3.643 3.6 3.03 3 5.06 11-2.03 15-1.1980204.67385-2.5159493 1.1076116-3.88 1.277 2.3711809.3237411 4.7835836-.1247273 6.88-1.279 7.09-4 5.06-12 2.03-15z"
                  fill="#cfd8dc"></path>
            <path id="Path"
                  d="m16.54 25.85c-.8564437 1.0662436-1.525929 2.2699648-1.98 3.56v.01c-.5815217 1.6264654-.8066064 3.3589353-.66 5.08-7.44 3.04-12.9-1.73-12.9-6.5-.01741344-2.944781 1.05058596-5.7927794 3-8 0 3 3 3 8 3 1.9735793-.144374 3.8122195 1.0098384 4.54 2.85z"
                  fill="#e91e63"></path>
            <path id="Path"
                  d="m12 23c-5 0-8 0-8-3-.64282102.7054105-1.18618544 1.4953917-1.615 2.348 1.345.652 3.615.652 6.615.652 1.9735793-.144374 3.8122195 1.0098384 4.54 2.85-.8564437 1.0662436-1.525929 2.2699648-1.98 3.56v.01c-.5815217 1.6264654-.8066064 3.3589353-.66 5.08-.9750495.4014968-1.99620368.6802988-3.04.83 2.0513518.2834575 4.1411458-.0037162 6.04-.83-.1466064-1.7210647.0784783-3.4535346.66-5.08v-.01c.454071-1.2900352 1.1235563-2.4937564 1.98-3.56-.7277805-1.8401616-2.5664207-2.994374-4.54-2.85z"
                  fill="#ad1457"></path>
            <path id="Path"
                  d="m56 2c-.1309677 2.32529017-.8426506 4.58067175-2.07 6.56-.8352424-.69012218-1.4963899-1.56708469-1.93-2.56-.4245876-.82092754-1.0774682-1.50159029-1.88-1.96 1.7224041-1.23253244 3.7643433-1.94096031 5.88-2.04z"
                  fill="#ffeb3a"></path>
            <path id="Path"
                  d="m46.6 46.4-1.3 1.3c-.7394087.7431702-1.9280164.786869-2.72.1-.37-.32-.8-.7-1.26-1.12l4.23-4.23c.32.36.69.74 1.07 1.14.759557.7858679.7506662 2.0350234-.02 2.81z"
                  fill="#ef314c"></path>
            <path id="Path"
                  d="m16.68 47.68c-.46.42-.89.8-1.26 1.12-.7919836.686869-1.9805913.6431702-2.72-.1l-1.3-1.3c-.7706662-.7749766-.779557-2.0241321-.02-2.81.38-.4.75-.78 1.07-1.14z"
                  fill="#ef314c"></path>
            <g fill="#000">
                <path id="Shape"
                      d="m53.925 12.325c1.1288788-.6919203 2.1012075-1.6114606 2.855-2.7.2833081-.35924836.2866766-.86495067.0081793-1.22794121s-.7678245-.49068187-1.1881793-.31005879c-.0953001.02243391-.1938148.02785052-.291.016 1.0218635-1.87869454 1.6002917-3.96630392 1.691-6.103 0-.55228475-.4477153-1-1-1-2.115786.0903192-4.169989.73894224-5.954 1.88-1.8746079-.90330624-4.0345179-1.01148204-5.99-.3-.9482666.35902242-1.7597984 1.00684868-2.32 1.852-.5382759-.27416753-1.1320074-.42191639-1.736-.432-.3592805-.00026157-.7136695.08328519-1.035.244-1.5161224-.78239273-3.2858104-.91241062-4.9-.36-3.789 1.344-6.166 6.186-7.992 10.744-.439 1.1-.986 1.724-1.626 1.857-1.038.216-2.329-.789-2.738-1.192-.2858042-.2873421-.7167776-.3737691-1.0912738-.2188429s-.6184529.5205664-.6177262.9258429c-.0494915 1.8478203.3315506 3.6818206 1.113 5.357-1.6585368.5997866-3.1619072 1.5629687-4.4 2.819-1.1249735-1.4469518-2.8820219-2.258184-4.713-2.176-5.593 0-7-.235-7-2-.00008635-.4043959-.2437275-.7689341-.61734544-.923678s-.80366031-.0692299-1.08965456.216678c-2.14134404 2.3923875-3.31526106 5.4963339-3.293 8.707.05604848 2.7698169 1.48806447 5.329747 3.819 6.827 1.63689785 1.0799002 3.56013282 1.6438773 5.521 1.619 1.2744093-.0098018 2.5400244-.2120844 3.754-.6.2547975 1.3199883.734438 2.5864017 1.418 3.744-.888 1.082-2.138 2.524-3.851 4.306-1.12917729 1.1804673-1.11499953 3.0448421.032 4.208l1.3 1.3c1.111785 1.112586 2.8940959 1.1776115 4.084.149 1.7162188-1.4872233 3.3458852-3.071482 4.881-4.745 2.2557695.820542 4.6418472 1.2244336 7.042 1.192 3.1417864.0583138 6.242957-.7166338 8.988-2.246 1.5499591 1.6945536 3.1974225 3.2972745 4.934 4.8 1.1899041 1.0286115 2.972215.963586 4.084-.149l1.3-1.3c1.1471221-1.1634977 1.161299-3.0281952.032-4.209-2.1-2.188-3.525-3.878-4.4-4.987.9698704-1.5605108 1.7424349-3.2352963 2.3-4.986 1.1628168.289045 2.3558233.439094 3.554.447 2.0596097.0196725 4.0888485-.4972871 5.888-1.5 2.8406574-1.4516321 4.7927255-4.1997617 5.228-7.36.4037536-3.362525-.6873209-6.7329764-2.985-9.221-.951-.944-2.003-1.983-2.998-2.964zm-.237-5.441c-.3028099-.41798443-.5678536-.86206643-.792-1.327-.2652914-.52791162-.6163997-1.00810875-1.039-1.421.9606003-.49741599 1.9930701-.84157259 3.06-1.02-.2153613 1.3112652-.6298102 2.58192726-1.229 3.768zm-8.9-2.446c1.5952323-.54729869 3.3490031-.38001257 4.812.459.6391126.35881476 1.1602278.89556347 1.5 1.545.5062883 1.13259181 1.2690473 2.1319157 2.228 2.919.2133154.1610098.4417135.30099574.682.418-.6108808.5839973-1.3351712 1.0363385-2.128 1.329-2.865 1.018-5.508-.626-5.98-1.538-.6132062-1.45393837-1.473587-2.79069203-2.543-3.951.3333845-.54216546.8379789-.95773454 1.434-1.181zm-6.748 8.715c.134 2.834.414 8.73-2.771 11.824-1.320314 1.2146785-3.0233359 1.9301953-4.815 2.023.1963808-.3396137.3419274-.7061757.432-1.088 1.0817521-.1777414 2.0636891-.7380878 2.767-1.579 1.5-1.774 1.964-4.711 1.333-8.5-.382-2.29-.165-3.945.647-4.918.4727442-.5362192 1.1199041-.8879596 1.827-.993.009.081.011.166.021.247.0864238.7226785.2624429 1.4317937.524 2.111.007.25.019.534.035.873zm-13.2 5.292c1.342-.276 2.38-1.31 3.085-3.073 1-2.508 3.356-8.38 6.8-9.6.9525794-.32750715 1.9921749-.29441941 2.922.093-.2052594.67025759-.3064372 1.36804692-.3 2.069-1.2558779.14526941-2.4130351.75182364-3.247 1.702-1.2 1.441-1.568 3.637-1.084 6.529.523 3.14.208 5.581-.887 6.873-.523806.6312172-1.3091043.9860584-2.129.962v.017c-.0354358-.0056429-.0711573-.0093152-.107-.011-.043 0-4.247.407-6.455-2.645-.6904029-.996371-1.1330006-2.1431483-1.291-3.345.8268944.4360153 1.7746117.5868205 2.696.429zm-12.84 5.555c1.3680592-.1175167 2.6814815.5633296 3.374 1.749-.4269502.5884931-.8039309 1.2116653-1.127 1.863-1.3350688-.8084124-2.9469377-1.02299-4.447-.592-2.055.41-3.684.075-4.586-.947-.68836893-.8977713-.98545465-2.0352779-.824-3.155 1.587 1.068 4.372 1.082 7.61 1.082zm-7.065 9.167c-1.76619308-1.1370706-2.86283101-3.0676765-2.935-5.167-.00033547-1.1188928.1682302-2.2314262.5-3.3.14474524.9964191.5668149 1.9320415 1.218 2.7 1.393 1.579 3.691 2.141 6.477 1.585 1.557-.309 2.654-.1 3.272.609-.4252568 1.3664836-.624215 2.7933076-.589 4.224-3.962 1.388-6.658.213-7.943-.651zm8.473 14.827-1.3-1.3c-.3805245-.3922032-.3805245-1.0157968 0-1.408.134-.139.244-.261.373-.4l2.752 2.752-.461.407c-.3973885.3441824-.9934231.3218966-1.364-.051zm32.485-2.3-1.3 1.3c-.3690076.3700985-.9607705.3936296-1.358.054l-.461-.407 2.752-2.752c.129.135.239.256.373.4.3762752.3933088.373623 1.0139215-.006 1.404zm12.033-21.449c-.3700184 2.5310443-1.945718 4.7249431-4.226 5.884-2.7299278 1.4432307-5.9415183 1.6697519-8.847.624-1.8696994-.5812947-3.6407277-1.4420287-5.253-2.553-.4418278-.3313708-1.0686291-.2418278-1.4.2-.3313708.4418278-.2418278 1.0686291.2 1.4 1.5223906 1.058164 3.1767872 1.9124256 4.921 2.541-.434123 1.3508085-1.0075402 2.6528106-1.711 3.885-.3343602-.2741545-.8083283-.2984814-1.169-.06-.4589424.3064309-.5829086.9267093-.277 1.386 1.2231801 1.7087827 2.5573913 3.335291 3.994 4.869l-2.858 2.868c-1.6302826-1.5047549-3.1352608-3.1398301-4.5-4.889-.3313708-.4418278-.9581722-.5313708-1.4-.2s-.5313708.9581722-.2 1.4c.152.2.317.4.477.6-2.3686177 1.2314492-5.0078634 1.8502641-7.677 1.8-1.9189363.0235192-3.8299331-.2503959-5.665-.812.156-.2.317-.391.465-.588.2143594-.2858125.2599564-.6642734.1196152-.9928203-.1403411-.3285469-.4452994-.5572656-.8-.6-.3547005-.0427344-.7052558.1070078-.9196152.3928203-1.3647392 1.7491699-2.8697174 3.3842451-4.5 4.889l-2.865-2.865c1.4366087-1.533709 2.7708199-3.1602173 3.994-4.869.306518-.4595009.1825009-1.0804819-.277-1.387-.4595009-.306518-1.080482-.1825009-1.387.277 0 .006-.108.159-.317.444-.5259757-1.0913596-.8495506-2.2691045-.955-3.476-.13229-1.5781115.0743273-3.1662692.606-4.658.0091684-.0241746.0168494-.0488874.023-.074.4157069-1.165525 1.0241658-2.2529762 1.8-3.217.127-.164.272-.326.407-.478 1.2253967-1.3686437 2.8084453-2.3681357 4.571-2.886 1.6650512 1.7868578 3.9738905 2.836003 6.415 2.915-.2928755.4511671-.6918423.8236963-1.162 1.085-.4107372.1966923-.6367032.6460572-.5496544 1.0930643.0870487.4470071.4651238.7787429.9196544.8069357.465.036.916.054 1.356.054 2.7148428.1407083 5.3733274-.8094191 7.384-2.639 3-2.911 3.459-7.519 3.448-10.888l.179.179c.3923789.3789722 1.0160848.3735524 1.4018186-.0121814s.3911536-1.0094397.0121814-1.4018186l-.179-.179c-1.1352264-1.1219492-1.8609889-2.5924898-2.061-4.176-.044-.377-.079-.767-.1-1.165-.1650247-.91260907-.0270071-1.85414904.393-2.681.0609053-.06874205.1519228-.1028268.243-.091.5697712.03013756 1.1110417.25867399 1.53.646 1.0968802 1.05059736 1.9617516 2.31912093 2.539 3.724l1.175 2.93c.1790846.4527973.6598133.7092056 1.1356122.6057063.4757989-.1034992.8065769-.5364325.7813878-1.0227063.9124727.3552909 1.8828.5387105 2.862.541.6476092.0002546 1.2925635-.0827593 1.919-.247 1.157 1.14 2.433 2.4 3.575 3.53 1.8525799 2.0476346 2.7307428 4.7954936 2.409 7.538z"
                      fill-rule="nonzero"></path>
                <path id="Path"
                      d="m54 21c-.5522847 0-1 .4477153-1 1-.0112942.5338153.1957906 1.0491116.5733395 1.4266605s.8928452.5846337 1.4266605.5733395c.5600167 0 1.0139999-.4539833 1.0139999-1.014s-.4539832-1.014-1.0139999-1.014c-.0151629-.54132-.4584677-.9722123-1-.972z"></path>
                <path id="Path"
                      d="m48 18c-.5522847 0-1 .4477153-1 1s-.4477153 1-1 1-1-.4477153-1-1-.4477153-1-1-1-1 .4477153-1 1c0 1.6568542 1.3431458 3 3 3s3-1.3431458 3-3c0-.5522847-.4477153-1-1-1z"></path>
                <path id="Path"
                      d="m55 38c.5522847 0 1-.4477153 1-1v-1c0-.5522847-.4477153-1-1-1s-1 .4477153-1 1v1c0 .5522847.4477153 1 1 1z"></path>
                <path id="Path"
                      d="m58 38h-1c-.5522847 0-1 .4477153-1 1s.4477153 1 1 1h1c.5522847 0 1-.4477153 1-1s-.4477153-1-1-1z"></path>
                <path id="Path"
                      d="m53 38h-1c-.5522847 0-1 .4477153-1 1s.4477153 1 1 1h1c.5522847 0 1-.4477153 1-1s-.4477153-1-1-1z"></path>
                <path id="Path"
                      d="m54 42c0 .5522847.4477153 1 1 1s1-.4477153 1-1v-1c0-.5522847-.4477153-1-1-1s-1 .4477153-1 1z"></path>
                <path id="Path"
                      d="m5 38c-.55228475 0-1 .4477153-1 1v1c0 .5522847.44771525 1 1 1s1-.4477153 1-1v-1c0-.5522847-.44771525-1-1-1z"></path>
                <path id="Path"
                      d="m8 41h-1c-.55228475 0-1 .4477153-1 1s.44771525 1 1 1h1c.55228475 0 1-.4477153 1-1s-.44771525-1-1-1z"></path>
                <path id="Path"
                      d="m4 42c0-.5522847-.44771525-1-1-1h-1c-.55228475 0-1 .4477153-1 1s.44771525 1 1 1h1c.55228475 0 1-.4477153 1-1z"></path>
                <path id="Path"
                      d="m4 45c0 .5522847.44771525 1 1 1s1-.4477153 1-1v-1c0-.5522847-.44771525-1-1-1s-1 .4477153-1 1z"></path>
                <path id="Path"
                      d="m14 12c-.5522847 0-1 .4477153-1 1v1c0 .5522847.4477153 1 1 1s1-.4477153 1-1v-1c0-.5522847-.4477153-1-1-1z"></path>
                <path id="Path"
                      d="m16 17h1c.5522847 0 1-.4477153 1-1s-.4477153-1-1-1h-1c-.5522847 0-1 .4477153-1 1s.4477153 1 1 1z"></path>
                <path id="Path"
                      d="m12 15h-1c-.5522847 0-1 .4477153-1 1s.4477153 1 1 1h1c.5522847 0 1-.4477153 1-1s-.4477153-1-1-1z"></path>
                <path id="Path"
                      d="m13 19c0 .5522847.4477153 1 1 1s1-.4477153 1-1v-1c0-.5522847-.4477153-1-1-1s-1 .4477153-1 1z"></path>
                <path id="Path"
                      d="m24 0c-.5522847 0-1 .44771525-1 1v1c0 .55228475.4477153 1 1 1s1-.44771525 1-1v-1c0-.55228475-.4477153-1-1-1z"></path>
                <path id="Path"
                      d="m26 5h1c.5522847 0 1-.44771525 1-1s-.4477153-1-1-1h-1c-.5522847 0-1 .44771525-1 1s.4477153 1 1 1z"></path>
                <path id="Path"
                      d="m22 3h-1c-.5522847 0-1 .44771525-1 1s.4477153 1 1 1h1c.5522847 0 1-.44771525 1-1s-.4477153-1-1-1z"></path>
                <path id="Path"
                      d="m23 7c0 .55228475.4477153 1 1 1s1-.44771525 1-1v-1c0-.55228475-.4477153-1-1-1s-1 .44771525-1 1z"></path>
            </g>
        </g>
    </g>
</svg>